# Blender 4.0.2
# www.blender.org
o building_residential_09
v -4.132216 4.831339 4.132277
v 4.132339 4.831339 4.132277
v -4.132216 4.831339 -4.132277
v 4.132339 4.831339 -4.132277
v -4.132216 0.000000 -4.132277
v 4.132339 0.000000 4.132277
v -4.132216 0.000000 4.132277
v 0.301066 8.082520 0.000000
v -0.300944 8.082520 0.000000
v 4.132339 0.000000 -4.132277
vn -0.0000 0.7859 -0.6183
vn 0.6470 0.7625 -0.0000
vn -0.6470 0.7625 -0.0000
vn -0.0000 0.7859 0.6183
vn -1.0000 -0.0000 -0.0000
vn -0.0000 -0.0000 -1.0000
vn 1.0000 -0.0000 -0.0000
vn -0.0000 -0.0000 1.0000
vt 0.413534 0.489760
vt 0.798945 0.489760
vt 0.620277 0.734960
vt 0.592203 0.734960
vt 0.413305 0.749769
vt 0.798709 0.749769
vt 0.606007 0.984093
vt 0.396453 0.749769
vt 0.203751 0.984093
vt 0.011049 0.749769
vt 0.011004 0.489760
vt 0.396415 0.489760
vt 0.217747 0.734960
vt 0.189672 0.734960
vt 0.395175 0.475071
vt 0.009769 0.475071
vt 0.009769 0.249769
vt 0.395175 0.249769
vt 0.795229 0.235071
vt 0.409823 0.235071
vt 0.409823 0.009769
vt 0.795229 0.009769
vt 0.795230 0.475074
vt 0.409825 0.475074
vt 0.409825 0.249772
vt 0.795230 0.249772
vt 0.009767 0.235068
vt 0.009767 0.009766
vt 0.395172 0.009766
vt 0.395172 0.235068
s 1
f 4/1/1 3/2/1 9/3/1 8/4/1
f 2/5/2 4/6/2 8/7/2
f 1/8/3 9/9/3 3/10/3
f 1/11/4 2/12/4 8/13/4 9/14/4
f 1/15/5 3/16/5 5/17/5 7/18/5
f 3/19/6 4/20/6 10/21/6 5/22/6
f 4/23/7 2/24/7 6/25/7 10/26/7
f 1/27/8 7/28/8 6/29/8 2/30/8
