# Blender 4.0.2
# www.blender.org
o building_residential_11
v 6.617333 0.000000 3.842844
v 6.617333 4.962038 3.842844
v -6.617334 0.000000 3.842844
v -6.617334 4.962038 3.842844
v 6.617334 0.000000 -3.842844
v 6.617334 4.962038 -3.842844
v -6.617333 0.000000 -3.842844
v -6.617333 4.962038 -3.842844
v -6.617334 0.000000 -0.227046
v -6.617334 7.222892 -0.227046
v 6.617334 0.000000 -0.227045
v 6.617334 7.222892 -0.227045
v 1.956747 4.962038 -3.842844
v -1.818720 4.962038 -3.842844
v -1.818720 0.000000 -3.842844
v 1.956747 0.000000 -3.842844
v -1.818720 7.222892 -0.227045
v 1.956747 7.222892 -0.227045
v -0.570320 0.000000 3.842844
v -3.067121 0.000000 3.842844
v -1.818720 0.000000 3.842844
v 0.708346 0.000000 3.842844
v 3.205148 0.000000 3.842844
v 1.956747 0.000000 3.842844
v -3.067121 4.962038 3.842844
v -0.570320 4.962038 3.842844
v -1.818720 5.824385 3.842844
v 3.205148 4.962038 3.842844
v 0.708346 4.962038 3.842844
v 1.956747 5.824385 3.842844
v -6.617334 0.000000 2.290487
v 6.617334 5.824383 2.290488
v -6.617334 5.824383 2.290487
v 6.617334 0.000000 2.290488
v -1.818720 5.824383 2.290488
v 1.956747 5.824383 2.290488
vn 1.0000 -0.0000 -0.0000
vn -1.0000 -0.0000 -0.0000
vn -0.0000 -0.0000 1.0000
vn -0.0000 0.8742 0.4856
vn -0.0000 0.8479 -0.5302
vn -0.0000 -0.0000 -1.0000
vn -0.5683 0.8228 -0.0000
vn 0.5683 0.8228 -0.0000
vt 0.706969 0.359770
vt 0.706969 0.628613
vt 0.635314 0.588809
vt 0.635314 0.359770
vt 0.802205 0.009770
vt 0.802205 0.343165
vt 0.635307 0.238807
vt 0.635307 0.009770
vt 0.918409 0.009770
vt 0.918409 0.278612
vt 0.347903 0.695766
vt 0.347903 0.924806
vt 0.288882 0.924806
vt 0.288882 0.695766
vt 0.231268 0.468664
vt 0.009770 0.468664
vt 0.009770 0.335733
vt 0.231268 0.335733
vt 0.399156 0.680607
vt 0.399156 0.483768
vt 0.620652 0.483768
vt 0.620652 0.680607
vt 0.620665 0.468664
vt 0.405538 0.468664
vt 0.405538 0.335733
vt 0.620665 0.335733
vt 0.620652 0.695766
vt 0.620652 0.924806
vt 0.463151 0.924806
vt 0.463151 0.695766
vt 0.399164 0.009763
vt 0.399164 0.238805
vt 0.224893 0.238805
vt 0.224893 0.009763
vt 0.224887 0.483768
vt 0.224887 0.680607
vt 0.009762 0.680607
vt 0.009762 0.483768
vt 0.173643 0.253764
vt 0.009770 0.253764
vt 0.173633 0.695766
vt 0.173633 0.924806
vt 0.009761 0.924806
vt 0.009761 0.695766
vt 0.009766 0.238805
vt 0.009766 0.009763
vt 0.405527 0.695766
vt 0.405527 0.964611
vt 0.706220 0.329948
vt 0.636192 0.330748
vt 0.635373 0.259101
vt 0.706955 0.677116
vt 0.635302 0.677116
vt 0.635302 0.607082
vt 0.989425 0.257083
vt 0.989425 0.327115
vt 0.917774 0.327115
vt 0.990159 0.607098
vt 0.989341 0.678749
vt 0.919308 0.677949
vt 0.231257 0.695766
vt 0.231257 0.964611
vt 0.463163 0.253764
vt 0.620665 0.253764
vt 0.347914 0.253764
vt 0.288892 0.253764
vt 0.990062 0.009770
vt 0.990062 0.238807
vt 0.823174 0.359770
vt 0.823174 0.693166
vt 0.620663 0.009763
vt 0.620663 0.238805
vt 0.990072 0.359770
vt 0.990072 0.588809
s 1
f 34/1/1 32/2/1 2/3/1 1/4/1
f 9/5/2 10/6/2 8/7/2 7/8/2
f 31/9/2 33/10/2 10/6/2 9/5/2
f 22/11/3 29/12/3 26/13/3 19/14/3
f 17/15/4 10/16/4 33/17/4 35/18/4
f 17/19/5 14/20/5 8/21/5 10/22/5
f 12/23/4 18/24/4 36/25/4 32/26/4
f 1/27/3 2/28/3 28/29/3 23/30/3
f 15/31/6 14/32/6 13/33/6 16/34/6
f 13/35/5 18/36/5 12/37/5 6/38/5
f 25/39/4 35/18/4 33/17/4 4/40/4
f 20/41/3 25/42/3 4/43/3 3/44/3
f 16/34/6 13/33/6 6/45/6 5/46/6
f 29/12/3 22/11/3 24/47/3 30/48/3
f 30/48/3 24/47/3 23/30/3 28/29/3
f 17/19/5 18/36/5 13/35/5 14/20/5
f 25/49/7 27/50/7 35/51/7
f 35/52/8 27/53/8 26/54/8
f 29/55/7 30/56/7 36/57/7
f 36/58/8 30/59/8 28/60/8
f 25/42/3 20/41/3 21/61/3 27/62/3
f 27/62/3 21/61/3 19/14/3 26/13/3
f 36/25/4 28/63/4 2/64/4 32/26/4
f 29/65/4 36/25/4 35/18/4 26/66/4
f 3/67/2 4/68/2 33/10/2 31/9/2
f 11/69/1 12/70/1 32/2/1 34/1/1
f 18/24/4 17/15/4 35/18/4 36/25/4
f 14/32/6 15/31/6 7/71/6 8/72/6
f 5/73/1 6/74/1 12/70/1 11/69/1
